<svg width="400" height="515" viewBox="0 0 400 515" fill="none" xmlns="http://www.w3.org/2000/svg">
<path d="M388.078 75.18L209.853 254.551L470.71 564.497L648.935 385.127L388.078 75.18Z" fill="url(#paint0_linear_322_138)"/>
<path d="M400 0H36V236H400V0Z" fill="#5DB7E8"/>
<path d="M170.616 -160.329L-18.0864 -1.70776L399.715 493.66L587.984 336.189L170.616 -160.329Z" fill="#5DB7E8"/>
<path d="M583.981 343.271L395.297 105.089L217 274.344L405.685 512.526L583.981 343.271Z" fill="#5DB7E8"/>
<path d="M399.5 3.95561e-06L185.765 227.673L398.659 481.707L399.224 158.232L399.5 3.95561e-06Z" fill="url(#paint1_linear_322_138)"/>
<path d="M155.606 0.0565139L-5.85187 -0.203967L185.762 227.791L399.798 0.450438L155.606 0.0565139Z" fill="url(#paint2_linear_322_138)"/>
<path d="M295.5 0H285L332.38 50.362L400 117V113L295.5 0Z" fill="#2F7CE2"/>
<path d="M400 0V113L399 112L398.5 115.5L288 0H400Z" fill="url(#paint3_linear_322_138)"/>
<defs>
<linearGradient id="paint0_linear_322_138" x1="528.748" y1="295.09" x2="287.225" y2="426.815" gradientUnits="userSpaceOnUse">
<stop offset="0.379077" stop-color="#5BB0EA" stop-opacity="0.498718"/>
<stop offset="0.464914" stop-color="#5AA9EC" stop-opacity="0.498718"/>
<stop offset="0.716346" stop-color="#3C87E6"/>
</linearGradient>
<linearGradient id="paint1_linear_322_138" x1="660.101" y1="446.264" x2="418.303" y2="606.457" gradientUnits="userSpaceOnUse">
<stop offset="0.317308" stop-color="#6FC0F0" stop-opacity="0.15"/>
<stop offset="0.75" stop-color="#3C87E6"/>
</linearGradient>
<linearGradient id="paint2_linear_322_138" x1="267.326" y1="-2.48291" x2="26.8887" y2="117.361" gradientUnits="userSpaceOnUse">
<stop offset="0.120192" stop-color="#62B1EE" stop-opacity="0.36506"/>
<stop offset="0.466346" stop-color="#3C87E6"/>
</linearGradient>
<linearGradient id="paint3_linear_322_138" x1="410.587" y1="46.0561" x2="370.358" y2="84.8451" gradientUnits="userSpaceOnUse">
<stop stop-color="#3752DB"/>
</linearGradient>
</defs>
</svg>
